<svg xmlns="http://www.w3.org/2000/svg" width="64" height="64" viewBox="0 0 64 64" fill="none">
  <defs>
    <linearGradient id="gradient1" x1="0%" y1="0%" x2="100%" y2="100%">
      <stop offset="0%" style="stop-color:#3B82F6;stop-opacity:1" />
      <stop offset="100%" style="stop-color:#8B5CF6;stop-opacity:1" />
    </linearGradient>
  </defs>
  
  <!-- Background Circle -->
  <circle cx="32" cy="32" r="32" fill="url(#gradient1)"/>
  
  <!-- Briefcase Icon -->
  <path d="M16 20C16 18.8954 16.8954 18 18 18H22V16C22 14.8954 22.8954 14 24 14H40C41.1046 14 42 14.8954 42 16V18H46C47.1046 18 48 18.8954 48 20V44C48 45.1046 47.1046 46 46 46H18C16.8954 46 16 45.1046 16 44V20Z" fill="white" fill-opacity="0.9"/>
  
  <!-- Handle -->
  <rect x="24" y="16" width="16" height="2" fill="url(#gradient1)"/>
  
  <!-- Lock Detail -->
  <rect x="30" y="22" width="4" height="6" rx="1" fill="url(#gradient1)"/>
  
  <!-- Bottom accent -->
  <path d="M16 38H48V44C48 45.1046 47.1046 46 46 46H18C16.8954 46 16 45.1046 16 44V38Z" fill="white" fill-opacity="0.1"/>
</svg>
